<svg width="200" height="55" viewBox="0 0 200 55" fill="none" xmlns="http://www.w3.org/2000/svg">
<mask id="mask0_65_109" style="mask-type:luminance" maskUnits="userSpaceOnUse" x="4" y="9" width="68" height="40">
<path d="M4 9.93945H71.9544V48.2795H4V9.93945Z" fill="white"/>
</mask>
<g mask="url(#mask0_65_109)">
<path d="M4 9.93945H71.9311V48.2795H4V9.93945Z" fill="#00A0E0"/>
</g>
<mask id="mask1_65_109" style="mask-type:luminance" maskUnits="userSpaceOnUse" x="76" y="14" width="18" height="30">
<path d="M76.8418 14.1055H93.5408V43.71H76.8418V14.1055Z" fill="white"/>
</mask>
<g mask="url(#mask1_65_109)">
<path d="M87.2193 26.9596L84.9092 26.248C82.4167 25.48 81.4599 24.3206 81.4599 22.4999C81.4599 20.193 82.7306 18.6274 85.1553 18.6274C87.1769 18.6274 88.4985 19.938 88.9694 21.8268C89.0055 21.9662 89.0373 22.1056 89.0606 22.2538C89.0818 22.3902 89.0988 22.5118 89.1115 22.6215C89.1518 22.9269 89.3428 23.1464 89.5655 23.1464H92.546C92.6732 23.1464 92.7963 23.0722 92.8832 22.9388C92.9702 22.8083 93.0169 22.6334 93.0063 22.4555C92.7517 17.4621 89.6376 14.1055 85.2571 14.1055C80.499 14.1055 77.3021 17.6518 77.3021 22.9269C77.3021 26.9596 79.4956 29.397 83.1421 30.503L85.7429 31.3095C88.3182 32.1161 89.3131 33.2606 89.3131 35.2117C89.3131 37.4801 87.7051 39.2889 85.3398 39.2889C83.1676 39.2889 81.5554 38.0139 80.989 36.1487C80.8957 35.8166 80.8299 35.5053 80.7875 35.2622C80.7344 34.9745 80.5499 34.767 80.3378 34.767H77.3021C77.1749 34.767 77.0497 34.8441 76.9627 34.9775C76.8758 35.1109 76.8312 35.2859 76.8439 35.4667C77.1473 40.5343 80.395 43.8078 85.1171 43.8078C90.2698 43.8078 93.4709 40.3445 93.4709 34.767C93.4709 30.6424 91.2965 28.1991 87.2193 26.9596Z" fill="#00A0E0"/>
</g>
<mask id="mask2_65_109" style="mask-type:luminance" maskUnits="userSpaceOnUse" x="98" y="14" width="16" height="30">
<path d="M98.4668 14.1055H113.129V43.71H98.4668V14.1055Z" fill="white"/>
</mask>
<g mask="url(#mask2_65_109)">
<path d="M102.338 14.1055H98.9563C98.689 14.1055 98.4727 14.4079 98.4727 14.7815V43.1318C98.4727 43.5054 98.689 43.8078 98.9563 43.8078H112.478C112.745 43.8078 112.961 43.5054 112.961 43.1318V39.0813C112.961 38.7107 112.745 38.4082 112.478 38.4082H102.819V14.7815C102.819 14.4079 102.603 14.1055 102.338 14.1055Z" fill="#00A0E0"/>
</g>
<mask id="mask3_65_109" style="mask-type:luminance" maskUnits="userSpaceOnUse" x="114" y="14" width="6" height="31">
<path d="M114.826 14.1895H119.306V44.3633H114.826V14.1895Z" fill="white"/>
</mask>
<g mask="url(#mask3_65_109)">
<path d="M118.651 44.2566H115.303C115.04 44.2566 114.826 43.9571 114.826 43.5894V14.8596C114.826 14.4889 115.04 14.1895 115.303 14.1895H118.651C118.914 14.1895 119.128 14.4889 119.128 14.8596V43.5894C119.128 43.9571 118.914 44.2566 118.651 44.2566Z" fill="#00A0E0"/>
</g>
<path d="M166.317 31.5361H166.342C166.541 31.5457 166.729 31.6779 166.86 31.897L169 35.4996V24.8496H164V34.4717L165.808 31.8422C165.943 31.6424 166.125 31.5361 166.317 31.5361Z" fill="#00A0E0"/>
<path d="M175 35.5689V31.2402H170V37.3408L171.653 39.7602L175 35.5689Z" fill="#00A0E0"/>
<mask id="mask4_65_109" style="mask-type:luminance" maskUnits="userSpaceOnUse" x="184" y="19" width="7" height="23">
<path d="M184.604 19.2012H190.301V41.7859H184.604V19.2012Z" fill="white"/>
</mask>
<g mask="url(#mask4_65_109)">
<path d="M189.91 19.2012H184.887V41.0337L189.91 32.2858V19.2012Z" fill="#00A0E0"/>
</g>
<mask id="mask5_65_109" style="mask-type:luminance" maskUnits="userSpaceOnUse" x="161" y="21" width="27" height="23">
<path d="M161.838 21.1387H187.001V43.1375H161.838V21.1387Z" fill="white"/>
</mask>
<g mask="url(#mask5_65_109)">
<path d="M186.876 21.4744C186.791 21.3409 186.664 21.2787 186.539 21.3113L183.376 22.1297C183.181 22.1801 183.051 22.444 183.087 22.7168C183.123 22.9925 183.312 23.1734 183.507 23.123L185.425 22.6249L171.651 41.6792L166.257 32.9497C166.191 32.8429 166.098 32.7807 165.998 32.7747C165.896 32.7688 165.801 32.8222 165.728 32.923L161.838 38.3612V39.7874L165.964 34.0201L171.358 42.7467C171.422 42.8505 171.517 42.9157 171.617 42.9187C171.717 42.9246 171.814 42.8742 171.884 42.7763L185.841 23.4699L185.27 25.9429C185.208 26.2068 185.312 26.4915 185.503 26.5775C185.539 26.5952 185.578 26.6012 185.614 26.6012C185.766 26.6012 185.909 26.4648 185.957 26.2513L186.948 21.9606C186.986 21.7916 186.959 21.6078 186.876 21.4744Z" fill="#00A0E0"/>
</g>
<mask id="mask6_65_109" style="mask-type:luminance" maskUnits="userSpaceOnUse" x="145" y="13" width="18" height="7">
<path d="M145.48 13.6738H162.02V19.622H145.48V13.6738Z" fill="white"/>
</mask>
<g mask="url(#mask6_65_109)">
<path d="M155.998 19.6072H161.933V13.6738H145.484V19.6072H155.998Z" fill="#00A0E0"/>
</g>
<mask id="mask7_65_109" style="mask-type:luminance" maskUnits="userSpaceOnUse" x="145" y="25" width="18" height="19">
<path d="M145.48 25.6934H162.18V43.8463H145.48V25.6934Z" fill="white"/>
</mask>
<g mask="url(#mask7_65_109)">
<path d="M150.245 38.1351V31.7362H160.518V25.7969H145.484V44.1129H162.084V38.1351H150.245Z" fill="#00A0E0"/>
</g>
<mask id="mask8_65_109" style="mask-type:luminance" maskUnits="userSpaceOnUse" x="160" y="33" width="8" height="12">
<path d="M160.391 33.2852H167.45V44.6715H160.391V33.2852Z" fill="white"/>
</mask>
<g mask="url(#mask8_65_109)">
<mask id="mask9_65_109" style="mask-type:luminance" maskUnits="userSpaceOnUse" x="160" y="33" width="8" height="11">
<path d="M160.463 41.9401L165.484 33.5664L167.187 35.562L162.166 43.9357L160.463 41.9401Z" fill="white"/>
</mask>
<g mask="url(#mask9_65_109)">
<mask id="mask10_65_109" style="mask-type:luminance" maskUnits="userSpaceOnUse" x="160" y="33" width="8" height="11">
<path d="M160.461 41.9411L165.482 33.5703L167.186 35.5659L162.164 43.9366L160.461 41.9411Z" fill="white"/>
</mask>
<g mask="url(#mask10_65_109)">
<path d="M160.461 41.9401L165.482 33.5664L167.186 35.562L162.164 43.9357L160.461 41.9401Z" fill="#00A0E0"/>
</g>
</g>
</g>
<mask id="mask11_65_109" style="mask-type:luminance" maskUnits="userSpaceOnUse" x="6" y="14" width="18" height="7">
<path d="M6.55859 14.2422H23.5376V20.3801H6.55859V14.2422Z" fill="white"/>
</mask>
<g mask="url(#mask11_65_109)">
<path d="M17.2792 20.2912H23.325V14.2422H6.56445V20.2912H17.2792Z" fill="white"/>
</g>
<mask id="mask12_65_109" style="mask-type:luminance" maskUnits="userSpaceOnUse" x="6" y="26" width="18" height="19">
<path d="M6.55859 26.4531H23.5376V44.9856H6.55859V26.4531Z" fill="white"/>
</mask>
<g mask="url(#mask12_65_109)">
<path d="M11.4159 39.172V32.6516H21.8825V26.5996H6.56445V45.2626H23.4777V39.172H11.4159Z" fill="white"/>
</g>
<mask id="mask13_65_109" style="mask-type:luminance" maskUnits="userSpaceOnUse" x="25" y="13" width="21" height="34">
<path d="M25.1523 13.2383H45.517V46.2587H25.1523V13.2383Z" fill="white"/>
</mask>
<g mask="url(#mask13_65_109)">
<path d="M41.5965 35.4506C41.3716 35.4506 41.1807 35.6611 41.1065 35.9606C40.3895 38.8605 38.3869 40.4647 35.8053 40.4647C32.0442 40.4647 29.7701 36.4914 29.7701 29.707C29.7701 22.9434 32.0442 18.97 35.7904 18.97C38.4315 18.97 40.4786 20.8915 41.151 24.1621C41.2168 24.4764 41.4141 24.7017 41.6474 24.7017C41.6474 24.7017 44.4836 24.7047 45.4043 24.7017C45.557 24.7017 45.6779 24.512 45.6588 24.2985C45.0585 17.8759 40.9325 13.2383 35.7904 13.2383C29.2313 13.2383 25.1562 19.5571 25.1562 29.7277C25.1562 39.8865 29.2377 46.1964 35.8053 46.1964C40.9665 46.1964 44.9164 42.0511 45.6567 35.8687C45.6843 35.6522 45.5612 35.4506 45.4021 35.4506H41.5965Z" fill="white"/>
</g>
<mask id="mask14_65_109" style="mask-type:luminance" maskUnits="userSpaceOnUse" x="48" y="13" width="23" height="33">
<path d="M48.5195 13.1055H70.1061V45.5566H48.5195V13.1055Z" fill="white"/>
</mask>
<g mask="url(#mask14_65_109)">
<path d="M59.24 13.1055C52.7318 13.1055 48.5273 19.5251 48.5273 29.4585C48.5273 39.558 52.6321 45.8324 59.24 45.8324C65.8182 45.8324 69.906 39.558 69.906 29.4585C69.906 19.3739 65.8182 13.1055 59.24 13.1055ZM59.2379 40.1421C55.4301 40.1421 53.1094 35.9612 53.1094 29.4585C53.1094 22.9381 55.4874 18.7986 59.2379 18.7986C62.9757 18.7986 65.324 22.9381 65.324 29.4585C65.324 35.9612 62.9905 40.1421 59.2379 40.1421Z" fill="white"/>
</g>
<mask id="mask15_65_109" style="mask-type:luminance" maskUnits="userSpaceOnUse" x="159" y="37" width="6" height="7">
<path d="M159.846 37.0801H164.19V43.1528H159.846V37.0801Z" fill="white"/>
</mask>
<g mask="url(#mask15_65_109)">
<mask id="mask16_65_109" style="mask-type:luminance" maskUnits="userSpaceOnUse" x="160" y="37" width="5" height="6">
<path d="M160.354 39.9269L162.81 37.7148L164.028 40.3539L161.571 42.5689L160.354 39.9269Z" fill="white"/>
</mask>
<g mask="url(#mask16_65_109)">
<mask id="mask17_65_109" style="mask-type:luminance" maskUnits="userSpaceOnUse" x="160" y="37" width="5" height="6">
<path d="M160.354 39.9269L162.808 37.7148L164.028 40.3568L161.571 42.5689L160.354 39.9269Z" fill="white"/>
</mask>
<g mask="url(#mask17_65_109)">
<path d="M160.354 39.9269L162.81 37.7148L164.028 40.3539L161.571 42.5689L160.354 39.9269Z" fill="#00A0E0"/>
</g>
</g>
</g>
<mask id="mask18_65_109" style="mask-type:luminance" maskUnits="userSpaceOnUse" x="164" y="33" width="4" height="5">
<path d="M164.189 33.2852H167.448V37.8397H164.189V33.2852Z" fill="white"/>
</mask>
<g mask="url(#mask18_65_109)">
<mask id="mask19_65_109" style="mask-type:luminance" maskUnits="userSpaceOnUse" x="164" y="33" width="4" height="5">
<path d="M165.773 37.3915L164.445 35.4226L165.854 33.5664L167.182 35.5353L165.773 37.3915Z" fill="white"/>
</mask>
<g mask="url(#mask19_65_109)">
<mask id="mask20_65_109" style="mask-type:luminance" maskUnits="userSpaceOnUse" x="164" y="33" width="4" height="5">
<path d="M165.771 37.3915L164.443 35.4226L165.852 33.5664L167.18 35.5353L165.771 37.3915Z" fill="white"/>
</mask>
<g mask="url(#mask20_65_109)">
<path d="M165.771 37.3915L164.443 35.4226L165.852 33.5664L167.18 35.5353L165.771 37.3915Z" fill="#00A0E0"/>
</g>
</g>
</g>
<mask id="mask21_65_109" style="mask-type:luminance" maskUnits="userSpaceOnUse" x="122" y="13" width="21" height="32">
<path d="M122.77 13.6738H142.32V44.9863H122.77V13.6738Z" fill="white"/>
</mask>
<g mask="url(#mask21_65_109)">
<path d="M138.361 34.7327C138.147 34.7327 137.966 34.9343 137.896 35.216C137.218 37.9677 135.317 39.4888 132.869 39.4888C129.303 39.4888 127.148 35.7201 127.148 29.2886C127.148 22.8748 129.303 19.109 132.856 19.109C135.359 19.109 137.3 20.9297 137.939 24.0313C138 24.3278 138.187 24.5442 138.41 24.5442C138.41 24.5442 141.1 24.5442 141.969 24.5442C142.116 24.5413 142.23 24.3634 142.211 24.1588C141.643 18.0712 137.731 13.6738 132.856 13.6738C126.636 13.6738 122.773 19.6635 122.773 29.3093C122.773 38.9403 126.643 44.924 132.869 44.924C137.763 44.924 141.509 40.9952 142.211 35.133C142.237 34.9254 142.12 34.7356 141.969 34.7327H138.361Z" fill="#00A0E0"/>
</g>
</svg>
